<?xml version="1.0" standalone="no"?>
<!DOCTYPE svg PUBLIC "-//W3C//DTD SVG 20010904//EN"
 "http://www.w3.org/TR/2001/REC-SVG-20010904/DTD/svg10.dtd">
<svg version="1.0" xmlns="http://www.w3.org/2000/svg"
 width="640.000000pt" height="640.000000pt" viewBox="0 0 640.000000 640.000000"
 preserveAspectRatio="xMidYMid meet">
<metadata>
Created by potrace 1.14, written by Peter Selinger 2001-2017
</metadata>
<g transform="translate(0.000000,640.000000) scale(0.100000,-0.100000)"
fill="#000000" stroke="none">
<path d="M3005 6376 c-323 -83 -557 -319 -635 -641 -18 -76 -21 -112 -18 -230
l3 -140 -55 -27 c-30 -15 -89 -39 -130 -53 -41 -14 -140 -50 -220 -80 -186
-69 -316 -115 -327 -115 -5 0 -31 30 -58 68 -140 191 -287 298 -494 357 -77
22 -114 27 -210 27 -64 0 -130 -2 -146 -6 -17 -3 -39 -8 -50 -10 -11 -2 -49
-14 -84 -26 -297 -100 -515 -355 -569 -665 -12 -71 -8 -287 7 -335 58 -190
121 -300 234 -413 208 -206 526 -291 812 -217 44 12 90 24 102 27 26 6 50 -29
268 -391 119 -200 136 -233 132 -262 -6 -38 -267 -447 -335 -525 l-23 -26
-102 35 c-99 34 -107 35 -257 35 -149 1 -158 0 -250 -32 -110 -38 -194 -81
-276 -144 -53 -41 -82 -70 -159 -162 -37 -44 -122 -220 -141 -295 -19 -71 -25
-285 -11 -375 30 -191 182 -423 357 -542 79 -54 216 -114 295 -129 11 -2 31
-6 45 -9 34 -7 226 -7 275 0 65 10 175 45 240 77 81 41 154 96 253 192 46 45
87 82 92 84 11 4 676 -325 742 -367 l45 -29 -4 -138 c-5 -155 7 -235 53 -350
82 -206 227 -361 429 -460 127 -62 213 -81 360 -82 137 -1 208 12 321 59 473
197 675 747 437 1188 -29 54 -33 68 -24 88 12 27 49 66 405 436 99 104 205
214 235 245 232 245 374 393 419 439 l54 53 26 -18 c139 -94 339 -152 502
-145 391 15 713 277 810 657 17 66 20 104 17 220 -3 127 -7 149 -35 229 -104
294 -324 502 -602 570 -99 24 -119 27 -195 28 -155 1 -253 -24 -412 -102 -73
-36 -130 -58 -140 -55 -10 3 -269 258 -576 565 l-557 559 41 72 c82 146 127
289 131 421 10 363 -196 683 -530 824 -72 30 -92 36 -162 50 -14 3 -79 7 -145
10 -103 4 -133 1 -210 -19z m376 -216 c104 -33 218 -104 287 -179 50 -55 112
-162 138 -237 37 -108 40 -273 7 -379 -49 -154 -174 -307 -308 -377 -321 -168
-694 -54 -869 263 -54 98 -75 192 -71 319 3 115 24 193 77 288 77 136 245 268
391 306 77 21 277 18 348 -4z m-2351 -855 c207 -63 355 -207 428 -415 23 -65
26 -90 26 -195 0 -105 -4 -130 -28 -200 -66 -191 -234 -356 -420 -412 -79 -24
-87 -25 -181 -27 -282 -6 -550 199 -621 473 -16 64 -22 210 -11 276 44 258
254 469 517 519 50 9 236 -3 290 -19z m1410 -168 c9 -7 37 -41 62 -77 26 -36
67 -87 93 -115 25 -27 45 -53 45 -58 0 -4 -24 -44 -53 -90 -30 -45 -127 -197
-217 -337 -90 -140 -173 -265 -185 -278 l-21 -22 -224 110 c-123 61 -236 120
-251 131 -27 19 -27 19 -13 72 7 28 17 84 20 122 8 86 8 71 0 186 l-7 95 48
21 c54 24 87 37 328 124 94 34 211 77 260 95 105 38 96 37 115 21z m2378
-1507 c-30 -52 -62 -116 -71 -142 -29 -75 -21 -73 -197 -44 -14 3 -50 7 -80
10 -30 4 -68 8 -85 11 -94 15 -138 20 -217 29 -96 11 -107 18 -114 76 -3 27
-16 107 -20 126 -18 92 -76 224 -136 313 -17 25 -66 80 -108 121 -234 229
-576 302 -885 188 -129 -47 -213 -104 -331 -225 l-90 -93 -53 26 c-40 20 -52
31 -48 44 9 34 401 647 437 684 18 19 19 19 72 -2 124 -50 291 -68 432 -47
124 19 225 58 361 139 l40 23 573 -571 573 -571 -53 -95z m-3095 508 c173 -87
300 -157 309 -171 3 -6 -1 -24 -10 -42 -40 -74 -296 -455 -306 -455 -14 0 -28
22 -176 275 -68 116 -132 223 -143 238 l-20 29 40 41 c80 84 106 112 120 135
9 12 22 22 30 22 8 0 78 -32 156 -72z m1631 0 c206 -56 362 -194 439 -388 38
-96 44 -134 41 -251 -4 -177 -60 -304 -190 -436 -228 -229 -610 -243 -856 -31
-98 84 -183 224 -211 345 -19 79 -15 233 7 307 19 65 70 171 92 193 8 8 14 17
14 21 0 13 89 100 142 139 149 110 346 148 522 101z m-1032 -300 l60 -32 -5
-40 c-3 -23 -10 -75 -17 -116 -12 -71 -9 -244 4 -300 3 -14 8 -34 10 -45 9
-46 60 -165 96 -225 55 -91 131 -173 223 -241 116 -86 202 -124 367 -162 l25
-6 0 -486 0 -486 -40 -11 c-22 -6 -80 -23 -130 -38 -74 -23 -93 -26 -109 -16
-18 12 -144 219 -594 981 -107 182 -212 358 -233 392 -22 34 -39 65 -39 67 0
3 -20 39 -45 79 -25 41 -45 84 -45 95 0 11 40 80 88 154 48 73 137 208 196
301 59 92 112 167 118 167 6 0 37 -14 70 -32z m3393 -23 c211 -57 379 -222
447 -440 27 -86 29 -248 4 -340 -60 -224 -251 -407 -481 -460 -393 -92 -780
227 -770 633 2 109 6 127 39 215 72 192 236 338 441 395 84 24 227 22 320 -3z
m-1525 -539 c19 -3 73 -10 120 -16 47 -6 99 -13 115 -15 186 -26 251 -38 259
-45 4 -4 12 -39 16 -77 10 -87 30 -175 41 -188 5 -5 9 -17 9 -27 0 -24 43
-108 92 -181 l40 -59 -33 -41 c-18 -23 -75 -85 -125 -137 -51 -52 -116 -120
-144 -150 -56 -59 -337 -353 -510 -533 -233 -244 -297 -307 -307 -307 -6 0
-24 11 -40 23 -78 65 -306 167 -373 167 -10 0 -22 6 -27 13 -5 7 -9 208 -8
487 l1 474 34 12 c19 7 64 20 100 30 127 36 242 106 351 214 81 80 115 130
179 261 27 56 54 105 60 109 6 4 34 3 63 -1 29 -5 68 -11 87 -13z m-2366 -427
c56 -96 230 -388 386 -649 155 -261 294 -495 308 -520 14 -25 45 -75 68 -111
48 -76 49 -69 -28 -158 -21 -24 -53 -67 -73 -96 -19 -29 -41 -55 -50 -58 -17
-7 -740 353 -766 381 -4 4 -1 30 6 57 31 113 34 265 10 410 -17 100 -101 264
-188 366 -100 117 -94 97 -49 170 139 228 258 397 269 385 2 -2 50 -82 107
-177z m-834 -309 c25 -6 50 -12 55 -13 6 -2 36 -15 67 -29 165 -76 283 -206
346 -380 23 -64 26 -88 26 -198 0 -109 -4 -135 -27 -203 -48 -138 -131 -244
-254 -327 -63 -42 -146 -81 -208 -97 -11 -3 -69 -6 -130 -8 -84 -2 -126 2
-180 17 -188 52 -364 211 -436 397 -19 47 -23 80 -26 201 -3 156 4 197 51 291
81 160 229 286 400 339 85 27 229 31 316 10z m2393 -1080 c228 -72 396 -254
442 -479 25 -120 20 -202 -21 -332 -67 -212 -284 -398 -499 -427 -218 -29
-413 36 -565 190 -171 173 -224 429 -137 663 75 205 266 360 502 408 53 11
214 -2 278 -23z"/>
<path d="M3099 6040 c-106 -49 -137 -187 -77 -347 26 -71 82 -129 133 -139
143 -27 241 80 250 272 5 103 -17 157 -84 203 -48 35 -158 40 -222 11z"/>
<path d="M2967 5545 c-69 -28 -83 -39 -103 -76 -17 -35 -43 -153 -48 -225 -4
-49 -2 -56 23 -72 53 -37 226 -70 365 -70 151 0 375 51 377 86 9 102 -22 256
-61 305 -11 14 -44 35 -73 46 -28 10 -59 22 -68 26 -10 3 -24 -1 -34 -12 -34
-34 -91 -52 -157 -49 -53 2 -71 7 -110 34 -26 18 -48 32 -50 31 -2 0 -29 -11
-61 -24z"/>
<path d="M792 5225 c-65 -20 -91 -42 -117 -98 -53 -114 -5 -311 92 -377 36
-25 110 -33 156 -17 85 29 140 140 141 284 1 86 -1 94 -29 134 -52 73 -147
102 -243 74z"/>
<path d="M633 4720 c-105 -42 -120 -66 -146 -224 -11 -64 -12 -91 -8 -134 1
-16 49 -37 132 -55 103 -24 139 -29 232 -32 76 -2 119 3 263 29 41 8 114 34
130 47 12 10 12 81 -1 147 -3 15 -8 43 -11 62 -8 45 -29 97 -49 116 -17 17
-126 64 -150 64 -8 0 -15 -4 -15 -9 0 -16 -86 -52 -132 -55 -54 -4 -126 17
-158 47 l-25 23 -62 -26z"/>
<path d="M3148 4051 c-50 -10 -107 -56 -128 -104 -31 -69 -20 -210 23 -294 27
-52 63 -84 111 -98 146 -44 257 75 260 280 1 68 -3 87 -24 125 -41 73 -141
111 -242 91z"/>
<path d="M3353 3548 c-55 -61 -197 -68 -270 -12 -33 25 -37 26 -77 14 -68 -20
-115 -49 -131 -80 -21 -41 -44 -147 -49 -225 -5 -83 0 -86 150 -120 176 -40
327 -38 499 6 85 21 115 37 116 62 3 60 -8 149 -28 220 -15 56 -62 117 -89
117 -7 0 -33 9 -57 19 -45 19 -45 19 -64 -1z"/>
<path d="M5515 3660 c-132 -29 -181 -141 -140 -318 30 -125 102 -192 202 -188
118 6 193 117 196 291 2 68 -2 86 -23 123 -42 74 -141 112 -235 92z"/>
<path d="M5327 3145 c-66 -27 -82 -42 -101 -87 -27 -63 -53 -252 -38 -274 4
-6 30 -18 57 -27 45 -15 69 -21 170 -42 17 -4 78 -8 138 -9 117 -3 295 27 365
61 35 17 37 20 34 63 -4 74 -23 183 -39 220 -22 53 -50 77 -119 100 l-63 21
-33 -24 c-75 -55 -169 -58 -249 -8 -28 17 -53 31 -57 31 -4 -1 -33 -12 -65
-25z"/>
<path d="M807 2435 c-105 -36 -150 -142 -121 -290 10 -52 62 -150 92 -172 151
-112 316 25 315 262 0 103 -39 168 -118 200 -35 13 -129 14 -168 0z"/>
<path d="M680 1943 c-80 -34 -104 -49 -122 -73 -23 -31 -55 -185 -54 -255 1
-47 3 -51 36 -66 64 -30 238 -61 345 -61 120 0 267 26 358 63 25 10 27 16 27
64 0 69 -23 191 -46 237 -16 35 -47 56 -134 92 -14 5 -28 11 -31 13 -3 1 -16
-7 -28 -18 -64 -60 -191 -68 -266 -16 -16 12 -31 25 -33 29 -5 11 -11 10 -52
-9z"/>
<path d="M3157 1335 c-114 -40 -155 -166 -106 -327 30 -99 80 -151 166 -171
39 -9 104 15 143 52 95 92 116 314 37 400 -51 56 -157 76 -240 46z"/>
<path d="M3002 833 c-40 -16 -71 -36 -86 -56 -37 -50 -77 -268 -55 -308 11
-21 151 -60 269 -75 47 -6 189 -5 220 1 14 2 41 7 60 9 65 9 181 44 198 60 18
16 20 56 7 134 -4 20 -8 46 -9 57 -15 100 -47 147 -119 171 -28 9 -57 21 -63
26 -8 6 -28 -2 -58 -23 -82 -55 -217 -49 -271 11 -21 24 -15 24 -93 -7z"/>
</g>
</svg>
